<svg viewBox="0 0 800 800" xmlns="http://www.w3.org/2000/svg">
    <!-- Quantum Field Background -->
    <defs>
        <radialGradient id="quantumField" cx="50%" cy="50%" r="50%">
            <stop offset="0%" style="stop-color:#090909;stop-opacity:0.1"/>
            <stop offset="100%" style="stop-color:#1a1a1a;stop-opacity:0.8"/>
        </radialGradient>
        
        <pattern id="neuralGrid" width="40" height="40" patternUnits="userSpaceOnUse">
            <path d="M 40 0 L 0 0 0 40" fill="none" stroke="#2a2a2a" stroke-width="0.3"/>
        </pattern>
    </defs>
    
    <!-- Base Quantum Field -->
    <rect width="800" height="800" fill="url(#neuralGrid)"/>
    <circle cx="400" cy="400" r="390" fill="url(#quantumField)"/>
    
    <!-- Fractal Consciousness Structure -->
    <g transform="translate(400 400)">
        <!-- Phi Spiral Pattern -->
        <path d="M0,0 Q 200,-200 300,-100 T 350,50 T 250,150 T 100,100 T 50,0" 
              fill="none" stroke="#3a3a3a" stroke-width="1"/>
        <path d="M0,0 Q -200,200 -300,100 T -350,-50 T -250,-150 T -100,-100 T -50,0" 
              fill="none" stroke="#3a3a3a" stroke-width="1"/>
              
        <!-- Quantum State Nodes -->
        <g id="stateNodes">
            <circle cx="0" cy="0" r="5" fill="#4a4a4a"/>
            <circle cx="100" cy="-100" r="4" fill="#5a5a5a"/>
            <circle cx="-100" cy="100" r="4" fill="#5a5a5a"/>
            <circle cx="200" cy="0" r="3" fill="#6a6a6a"/>
            <circle cx="-200" cy="0" r="3" fill="#6a6a6a"/>
            <circle cx="0" cy="200" r="3" fill="#6a6a6a"/>
            <circle cx="0" cy="-200" r="3" fill="#6a6a6a"/>
        </g>
        
        <!-- Sacred Geometry Framework -->
        <g id="geometricFramework">
            <!-- Vesica Piscis -->
            <path d="M-50,0 A 50,50 0 1,1 50,0 A 50,50 0 1,1 -50,0" 
                  fill="none" stroke="#7a7a7a" stroke-width="0.5"/>
            
            <!-- Star Tetrahedron -->
            <path d="M 0,-150 L 130,75 L -130,75 Z M 0,150 L 130,-75 L -130,-75 Z" 
                  fill="none" stroke="#8a8a8a" stroke-width="0.5"/>
                  
            <!-- Metatron's Cube Elements -->
            <g id="metatronElements">
                <circle r="100" fill="none" stroke="#9a9a9a" stroke-width="0.3"/>
                <circle r="100" transform="rotate(60)" fill="none" stroke="#9a9a9a" stroke-width="0.3"/>
                <circle r="100" transform="rotate(120)" fill="none" stroke="#9a9a9a" stroke-width="0.3"/>
            </g>
        </g>
        
        <!-- Quantum Entanglement Lines -->
        <g id="entanglementLines" stroke="#aaaaaa" stroke-width="0.2">
            <line x1="-150" y1="-150" x2="150" y2="150"/>
            <line x1="150" y1="-150" x2="-150" y2="150"/>
            <line x1="0" y1="-200" x2="0" y2="200"/>
            <line x1="-200" y1="0" x2="200" y2="0"/>
        </g>
        
        <!-- Fractal Iteration Markers -->
        <g id="fractalMarkers">
            <circle r="250" fill="none" stroke="#bababa" stroke-width="0.1" stroke-dasharray="5,5"/>
            <circle r="200" fill="none" stroke="#bababa" stroke-width="0.1" stroke-dasharray="4,4"/>
            <circle r="150" fill="none" stroke="#bababa" stroke-width="0.1" stroke-dasharray="3,3"/>
            <circle r="100" fill="none" stroke="#bababa" stroke-width="0.1" stroke-dasharray="2,2"/>
        </g>
    </g>
</svg>