<svg viewBox="0 0 800 800" xmlns="http://www.w3.org/2000/svg">
    <!-- Holographic Grid Background -->
    <defs>
        <pattern id="grid" width="40" height="40" patternUnits="userSpaceOnUse">
            <path d="M 40 0 L 0 0 0 40" fill="none" stroke="#1a1a1a" stroke-width="0.5"/>
        </pattern>
        
        <radialGradient id="holoGrad" cx="50%" cy="50%" r="50%">
            <stop offset="0%" style="stop-color:#2a2a2a;stop-opacity:0.1"/>
            <stop offset="100%" style="stop-color:#4a4a4a;stop-opacity:0.8"/>
        </radialGradient>
    </defs>
    
    <!-- Base Holographic Field -->
    <rect width="800" height="800" fill="url(#grid)"/>
    <circle cx="400" cy="400" r="380" fill="url(#holoGrad)"/>
    
    <!-- Sacred Geometric Forms -->
    <!-- Metatron's Cube Base -->
    <g transform="translate(400 400)">
        <!-- Outer Circle -->
        <circle r="300" fill="none" stroke="#5a5a5a" stroke-width="1"/>
        
        <!-- Inner Hexagon -->
        <path d="M 0,-260 L 225,-130 L 225,130 L 0,260 L -225,130 L -225,-130 Z" 
              fill="none" stroke="#6a6a6a" stroke-width="1"/>
        
        <!-- Star Tetrahedron -->
        <path d="M 0,-200 L 173,100 L -173,100 Z M 0,200 L 173,-100 L -173,-100 Z" 
              fill="none" stroke="#7a7a7a" stroke-width="1"/>
        
        <!-- Central Flower of Life Pattern -->
        <g>
            <circle r="50" fill="none" stroke="#8a8a8a" stroke-width="1"/>
            <circle r="50" transform="translate(87,0)" fill="none" stroke="#8a8a8a" stroke-width="1"/>
            <circle r="50" transform="translate(43.5,75)" fill="none" stroke="#8a8a8a" stroke-width="1"/>
            <circle r="50" transform="translate(-43.5,75)" fill="none" stroke="#8a8a8a" stroke-width="1"/>
            <circle r="50" transform="translate(-87,0)" fill="none" stroke="#8a8a8a" stroke-width="1"/>
            <circle r="50" transform="translate(-43.5,-75)" fill="none" stroke="#8a8a8a" stroke-width="1"/>
            <circle r="50" transform="translate(43.5,-75)" fill="none" stroke="#8a8a8a" stroke-width="1"/>
        </g>
        
        <!-- Connecting Lines -->
        <g stroke="#9a9a9a" stroke-width="0.5">
            <line x1="-200" y1="0" x2="200" y2="0"/>
            <line x1="0" y1="-200" x2="0" y2="200"/>
            <line x1="-141" y1="-141" x2="141" y2="141"/>
            <line x1="-141" y1="141" x2="141" y2="-141"/>
        </g>
    </g>
</svg>
