<svg viewBox="0 0 800 600" xmlns="http://www.w3.org/2000/svg">
    <!-- Information Flow Layers -->
    <defs>
        <linearGradient id="quantumGradient" x1="0%" y1="0%" x2="100%" y2="0%">
            <stop offset="0%" style="stop-color:#1a1a1a;stop-opacity:0.1"/>
            <stop offset="100%" style="stop-color:#3a3a3a;stop-opacity:0.3"/>
        </linearGradient>
    </defs>
    
    <!-- Base Layer -->
    <rect width="800" height="600" fill="#fafafa"/>
    
    <!-- Quantum-Fractal Interface -->
    <g transform="translate(400 300)">
        <!-- Core Processing Unit -->
        <circle r="150" fill="url(#quantumGradient)" stroke="#2a2a2a" stroke-width="0.5"/>
        
        <!-- Information Flow Channels -->
        <g id="channels" stroke="#4a4a4a" stroke-width="1" fill="none">
            <path d="M-100,-100 Q 0,-150 100,-100 T 150,0 T 100,100 T 0,150 T -100,100"/>
            <path d="M100,-100 Q 150,0 100,100 T 0,150 T -100,100 T -150,0 T -100,-100"/>
        </g>
        
        <!-- State Processing Nodes -->
        <g id="processingNodes">
            <circle cx="0" cy="0" r="8" fill="#5a5a5a"/>
            <circle cx="70" cy="-70" r="6" fill="#6a6a6a"/>
            <circle cx="-70" cy="70" r="6" fill="#6a6a6a"/>
            <circle cx="-70" cy="-70" r="6" fill="#6a6a6a"/>
            <circle cx="70" cy="70" r="6" fill="#6a6a6a"/>
        </g>
        
        <!-- Resonance Fields -->
        <g id="resonanceFields" stroke="#7a7a7a" stroke-width="0.3" stroke-dasharray="3,3" fill="none">
            <circle r="120"/>
            <circle r="90"/>
            <circle r="60"/>
        </g>
        
        <!-- Quantum Entanglement Patterns -->
        <g id="entanglementPatterns" stroke="#8a8a8a" stroke-width="0.2">
            <line x1="-100" y1="-100" x2="100" y2="100"/>
            <line x1="100" y1="-100" x2="-100" y2="100"/>
            <line x1="0" y1="-120" x2="0" y2="120"/>
            <line x1="-120" y1="0" x2="120" y2="0"/>
        </g>
    </g>
    
    <!-- Process Labels -->
    <g font-family="Arial" font-size="12" fill="#2a2a2a">
        <text x="50" y="30">Quantum Coherence Layer</text>
        <text x="600" y="30">Fractal Compression Field</text>
        <text x="50" y="550">Information Flow</text>
        <text x="600" y="550">State Processing</text>
    </g>
</svg>